<?xml version="1.0" standalone="no"?>
<!DOCTYPE svg PUBLIC "-//W3C//DTD SVG 20010904//EN"
 "http://www.w3.org/TR/2001/REC-SVG-20010904/DTD/svg10.dtd">
<svg version="1.0" xmlns="http://www.w3.org/2000/svg"
 width="390.000000pt" height="416.000000pt" viewBox="0 0 390.000000 416.000000"
 preserveAspectRatio="xMidYMid meet">

<g transform="translate(0.000000,416.000000) scale(0.100000,-0.100000)"
fill="#000000" stroke="none">
<path d="M1055 3686 c-61 -29 -97 -65 -127 -131 l-23 -50 0 -1195 0 -1195 21
-45 c28 -58 77 -108 134 -134 45 -21 50 -21 939 -19 l895 2 55 28 c67 34 114
98 131 176 16 81 9 2369 -8 2420 -18 54 -78 116 -137 143 l-50 24 -890 0 -890
0 -50 -24z m1839 -172 c25 -26 26 -31 26 -135 l0 -109 -590 0 -590 0 0 78 c0
47 -5 83 -12 90 -14 14 -364 17 -385 4 -7 -5 -13 -39 -15 -87 l-3 -80 -81 0
c-51 0 -91 5 -108 14 -68 37 -91 160 -40 220 l26 31 873 0 872 0 27 -26z
m-1234 -354 l0 -210 -62 31 -62 31 -62 -30 -62 -31 -4 192 c-2 106 -1 200 1
210 3 15 17 17 127 17 l124 0 0 -210z m-549 53 c23 -12 64 -19 127 -21 l92 -4
0 -163 c0 -207 -2 -205 120 -145 l89 44 84 -44 c118 -62 117 -63 117 146 l0
164 590 0 590 0 0 -1020 c0 -740 -3 -1026 -11 -1044 -7 -14 -25 -30 -42 -36
-20 -7 -314 -10 -884 -10 l-855 0 -29 29 -29 29 0 1046 c0 575 2 1046 3 1046
2 0 19 -8 38 -17z"/>
<path d="M2270 2735 c-12 -14 -5 -25 53 -83 37 -37 67 -71 67 -75 0 -4 -180
-7 -401 -7 -453 0 -442 2 -480 -77 -18 -38 -20 -58 -17 -195 3 -168 9 -186 73
-225 28 -17 63 -18 430 -21 l400 -3 28 -30 27 -29 0 -156 0 -156 -29 -29 -29
-29 -256 0 c-141 -1 -303 -1 -361 -1 -58 0 -124 0 -147 1 l-42 0 69 70 c62 62
68 72 54 85 -13 13 -25 4 -109 -80 l-95 -95 97 -97 c77 -77 100 -95 110 -85
10 10 -2 26 -55 80 -37 37 -67 71 -67 75 0 4 182 7 404 7 526 0 496 -16 496
264 l0 168 -39 39 c-31 32 -46 39 -77 39 -22 1 -199 3 -394 5 -195 2 -363 4
-373 5 -10 0 -29 11 -42 25 -25 24 -25 27 -25 188 0 164 0 164 26 191 l27 26
401 0 400 0 -69 -70 c-61 -62 -68 -72 -55 -85 14 -13 27 -4 115 80 l100 94
-101 101 c-89 90 -102 100 -114 85z"/>
</g>
</svg>
